<svg width="100" height="70" viewBox="0 0 100 70" fill="none" xmlns="http://www.w3.org/2000/svg">
<g clip-path="url(#clip0_543_319)">
<path d="M0 10C0 4.47715 4.47715 0 10 0H90C95.5229 0 100 4.47715 100 10V60C100 65.5229 95.5229 70 90 70H10C4.47715 70 0 65.5229 0 60V10Z" fill="#D9D9D9"/>
<mask id="mask0_543_319" style="mask-type:alpha" maskUnits="userSpaceOnUse" x="5" y="5" width="90" height="60">
<path d="M5 15C5 9.47715 9.47715 5 15 5H85C90.5229 5 95 9.47715 95 15V55C95 60.5228 90.5229 65 85 65H15C9.47715 65 5 60.5228 5 55V15Z" fill="white"/>
</mask>
<g mask="url(#mask0_543_319)">
<rect x="5" y="5" width="90" height="20" fill="black"/>
<rect x="5" y="25" width="90" height="20" fill="#FF0000"/>
<rect x="5" y="45" width="90" height="20" fill="#FFEA00"/>
</g>
</g>
<defs>
<clipPath id="clip0_543_319">
<rect width="100" height="70" fill="white"/>
</clipPath>
</defs>
</svg>
