<svg width="100" height="70" viewBox="0 0 100 70" fill="none" xmlns="http://www.w3.org/2000/svg">
<path d="M0 10C0 4.47715 4.47715 0 10 0H90C95.5229 0 100 4.47715 100 10V60C100 65.5229 95.5229 70 90 70H10C4.47715 70 0 65.5229 0 60V10Z" fill="#D9D9D9"/>
<path d="M5 15C5 9.47715 9.47715 5 15 5H85C90.5229 5 95 9.47715 95 15V55C95 60.5228 90.5229 65 85 65H15C9.47715 65 5 60.5228 5 55V15Z" fill="white"/>
<path d="M65.6383 34.5954C65.6383 43.2478 58.9226 50.262 50.6383 50.262C42.354 50.262 35.6383 43.2478 35.6383 34.5954C35.6383 25.9429 42.354 18.9287 50.6383 18.9287C58.9226 18.9287 65.6383 25.9429 65.6383 34.5954Z" fill="#FF1818"/>
</svg>
