<svg width="59" height="70" viewBox="0 0 59 70" fill="none" xmlns="http://www.w3.org/2000/svg">
<path d="M0 6.73077C0 3.01347 3.01347 0 6.73077 0H51.8269C55.5442 0 58.5577 3.01347 58.5577 6.73077V63.2692C58.5577 66.9865 55.5442 70 51.8269 70H6.73077C3.01347 70 0 66.9865 0 63.2692V6.73077Z" fill="white"/>
<path fill-rule="evenodd" clip-rule="evenodd" d="M51.8269 2.69231H6.73077C4.50039 2.69231 2.69231 4.50039 2.69231 6.73077V63.2692C2.69231 65.4996 4.50039 67.3077 6.73077 67.3077H51.8269C54.0573 67.3077 55.8654 65.4996 55.8654 63.2692V6.73077C55.8654 4.50039 54.0573 2.69231 51.8269 2.69231ZM6.73077 0C3.01347 0 0 3.01347 0 6.73077V63.2692C0 66.9865 3.01347 70 6.73077 70H51.8269C55.5442 70 58.5577 66.9865 58.5577 63.2692V6.73077C58.5577 3.01347 55.5442 0 51.8269 0H6.73077Z" fill="#ED5380"/>
<path d="M10.0962 18.5096C10.0962 17.5803 10.8495 16.8269 11.7788 16.8269H46.7788C47.7082 16.8269 48.4615 17.5803 48.4615 18.5096C48.4615 19.4389 47.7082 20.1923 46.7788 20.1923H11.7788C10.8495 20.1923 10.0962 19.4389 10.0962 18.5096Z" fill="#ED5380"/>
<path d="M10.0962 18.5096C10.0962 17.5803 10.8495 16.8269 11.7788 16.8269H46.7788C47.7082 16.8269 48.4615 17.5803 48.4615 18.5096C48.4615 19.4389 47.7082 20.1923 46.7788 20.1923H11.7788C10.8495 20.1923 10.0962 19.4389 10.0962 18.5096Z" fill="#ED5380"/>
<path d="M10.0962 28.6058C10.0962 27.6764 10.8495 26.9231 11.7788 26.9231H46.7788C47.7082 26.9231 48.4615 27.6764 48.4615 28.6058C48.4615 29.5351 47.7082 30.2885 46.7788 30.2885H11.7788C10.8495 30.2885 10.0962 29.5351 10.0962 28.6058Z" fill="#ED5380"/>
<path d="M10.0962 38.7019C10.0962 37.7726 10.8495 37.0192 11.7788 37.0192H46.7788C47.7082 37.0192 48.4615 37.7726 48.4615 38.7019C48.4615 39.6312 47.7082 40.3846 46.7788 40.3846H11.7788C10.8495 40.3846 10.0962 39.6312 10.0962 38.7019Z" fill="#ED5380"/>
<path d="M10.0962 48.7981C10.0962 47.8688 10.8495 47.1154 11.7788 47.1154H46.7788C47.7082 47.1154 48.4615 47.8688 48.4615 48.7981C48.4615 49.7274 47.7082 50.4808 46.7788 50.4808H11.7788C10.8495 50.4808 10.0962 49.7274 10.0962 48.7981Z" fill="#ED5380"/>
<path d="M10.0962 58.8942C10.0962 57.9649 10.8495 57.2115 11.7788 57.2115H46.7788C47.7082 57.2115 48.4615 57.9649 48.4615 58.8942C48.4615 59.8236 47.7082 60.5769 46.7788 60.5769H11.7788C10.8495 60.5769 10.0962 59.8236 10.0962 58.8942Z" fill="#ED5380"/>
</svg>
