<svg width="60" height="60" viewBox="0 0 60 60" fill="none" xmlns="http://www.w3.org/2000/svg">
<path d="M1.53044 51.028C0.00325418 49.5008 0.00325418 47.0247 1.53044 45.4976C3.05763 43.9704 5.5337 43.9704 7.06089 45.4976L13.9739 52.4106C15.5011 53.9378 15.5011 56.4139 13.9739 57.9411C12.4468 59.4682 9.97069 59.4682 8.4435 57.9411L1.53044 51.028Z" fill="#ED5380"/>
<path d="M7.06089 42.7323C4.7701 40.4416 4.7701 36.7275 7.06089 34.4367C9.35167 32.1459 13.0658 32.1459 15.3566 34.4367L25.0348 44.1149C27.3256 46.4057 27.3256 50.1198 25.0348 52.4106C22.744 54.7014 19.03 54.7014 16.7392 52.4106L7.06089 42.7323Z" fill="#ED5380"/>
<path d="M57.941 8.44358C59.4682 9.97077 59.4682 12.4468 57.941 13.974C56.4138 15.5012 53.9377 15.5012 52.4105 13.974L45.4975 7.06097C43.9703 5.53378 43.9703 3.05772 45.4975 1.53053C47.0247 0.00333862 49.5007 0.00333862 51.0279 1.53053L57.941 8.44358Z" fill="#ED5380"/>
<path d="M52.4105 16.7392C54.7013 19.03 54.7013 22.7441 52.4105 25.0349C50.1197 27.3257 46.4056 27.3257 44.1149 25.0349L34.4366 15.3566C32.1458 13.0659 32.1458 9.35176 34.4366 7.06097C36.7274 4.77019 40.4415 4.77019 42.7323 7.06097L52.4105 16.7392Z" fill="#ED5380"/>
<path d="M20.7487 38.7228C19.6033 37.5774 19.6033 35.7203 20.7487 34.5749L34.5748 20.7488C35.7202 19.6034 37.5773 19.6034 38.7227 20.7488C39.8681 21.8942 39.8681 23.7513 38.7227 24.8967L24.8966 38.7228C23.7512 39.8682 21.8941 39.8682 20.7487 38.7228Z" fill="#D9D9D9"/>
</svg>
